# MagicaVoxel @ Ephtracy

# group
o Torso

# material
mtllib TorsoTemplate.mtl
usemtl palette

# normals
vn -1 0 0
vn 1 0 0
vn 0 0 1
vn 0 0 -1
vn 0 -1 0
vn 0 1 0

# texcoords
vt 0.00195313 0.5
vt 0.00585938 0.5
vt 0.00976563 0.5

# verts
v -0.3 -0.3 0.2
v -0.3 -0.3 -0.2
v -0.3 0.4 0.2
v -0.3 0.4 -0.2
v -0.1 0.4 0.1
v -0.1 0.4 -0.1
v -0.1 0.5 0.1
v -0.1 0.5 -0.1
v 0.1 0.4 0.1
v 0.1 0.4 -0.1
v 0.1 0.5 0.1
v 0.1 0.5 -0.1
v 0.3 -0.3 0.2
v 0.3 -0.3 -0.2
v 0.3 0.4 0.2
v 0.3 0.4 -0.2
v -0.3 -0.3 0.2
v -0.3 0.4 0.2
v -0.1 0.1 0.2
v -0.1 0.4 0.2
v 0.1 0.1 0.2
v 0.1 0.4 0.2
v 0.3 -0.3 0.2
v 0.3 0.4 0.2
v -0.1 0.4 0.1
v -0.1 0.5 0.1
v 0.1 0.4 0.1
v 0.1 0.5 0.1
v -0.1 0.4 -0.1
v -0.1 0.5 -0.1
v 0.1 0.4 -0.1
v 0.1 0.5 -0.1
v -0.3 -0.3 -0.2
v -0.3 0.4 -0.2
v 0.3 -0.3 -0.2
v 0.3 0.4 -0.2
v -0.3 -0.3 0.2
v 0.3 -0.3 0.2
v -0.3 -0.3 -0.2
v 0.3 -0.3 -0.2
v -0.3 0.4 0.2
v -0.1 0.4 0.2
v 0.1 0.4 0.2
v 0.3 0.4 0.2
v -0.1 0.4 0.1
v 0.1 0.4 0.1
v -0.1 0.4 -0.1
v 0.1 0.4 -0.1
v -0.3 0.4 -0.2
v 0.3 0.4 -0.2
v -0.1 0.5 0.1
v 0.1 0.5 0.1
v -0.1 0.5 -0.1
v 0.1 0.5 -0.1

# faces
f 3/1/1 2/1/1 1/1/1
f 4/1/1 2/1/1 3/1/1
f 7/2/1 6/2/1 5/2/1
f 8/2/1 6/2/1 7/2/1
f 9/2/2 10/2/2 11/2/2
f 11/2/2 10/2/2 12/2/2
f 13/1/2 14/1/2 15/1/2
f 15/1/2 14/1/2 16/1/2
f 19/1/3 18/1/3 17/1/3
f 20/1/3 18/1/3 19/1/3
f 21/1/3 19/1/3 17/1/3
f 21/2/3 20/2/3 19/2/3
f 22/2/3 20/2/3 21/2/3
f 23/1/3 21/1/3 17/1/3
f 23/1/3 22/1/3 21/1/3
f 24/1/3 22/1/3 23/1/3
f 27/2/3 26/2/3 25/2/3
f 28/2/3 26/2/3 27/2/3
f 29/2/4 30/2/4 31/2/4
f 31/2/4 30/2/4 32/2/4
f 33/1/4 34/1/4 35/1/4
f 35/1/4 34/1/4 36/1/4
f 39/1/5 38/1/5 37/1/5
f 40/1/5 38/1/5 39/1/5
f 41/1/6 42/1/6 45/1/6
f 42/2/6 43/2/6 45/2/6
f 43/1/6 44/1/6 46/1/6
f 45/2/6 43/2/6 46/2/6
f 41/1/6 45/1/6 47/1/6
f 46/1/6 44/1/6 48/1/6
f 41/1/6 47/1/6 49/1/6
f 47/1/6 48/1/6 49/1/6
f 48/1/6 44/1/6 50/1/6
f 49/1/6 48/1/6 50/1/6
f 51/2/6 52/2/6 53/2/6
f 53/2/6 52/2/6 54/2/6
