# MagicaVoxel @ Ephtracy

# group
o 

# material
mtllib HeadCece.mtl
usemtl palette

# normals
vn -1 0 0
vn 1 0 0
vn 0 0 1
vn 0 0 -1
vn 0 -1 0
vn 0 1 0

# texcoords
vt 0.00976563 0.5
vt 0.0136719 0.5
vt 0.0175781 0.5
vt 0.0214844 0.5
vt 0.0253906 0.5
vt 0.0292969 0.5

# verts
v -0.6 0.7 0.2
v -0.6 0.7 -0.1
v -0.6 1 0.2
v -0.6 1 -0.1
v -0.4 0 0.4
v -0.4 0 -0.3
v -0.4 0.2 -0.2
v -0.4 0.2 -0.3
v -0.4 0.3 -0.2
v -0.4 0.3 -0.3
v -0.4 0.7 0.2
v -0.4 0.7 -0.1
v -0.4 0.8 0.4
v -0.4 0.8 0.2
v -0.4 0.8 -0.1
v -0.4 0.8 -0.3
v -0.1 0.2 -0.3
v -0.1 0.2 -0.4
v -0.1 0.3 -0.3
v -0.1 0.4 -0.3
v -0.1 0.4 -0.4
v 0.3 0.8 0.2
v 0.3 0.8 -0.1
v 0.3 1 0.2
v 0.3 1 -0.1
v -0.3 0.8 0.2
v -0.3 0.8 -0.1
v -0.3 1 0.2
v -0.3 1 -0.1
v 0.1 0.2 -0.3
v 0.1 0.2 -0.4
v 0.1 0.3 -0.3
v 0.1 0.4 -0.3
v 0.1 0.4 -0.4
v 0.4 0 0.4
v 0.4 0 -0.3
v 0.4 0.2 -0.2
v 0.4 0.2 -0.3
v 0.4 0.3 -0.2
v 0.4 0.3 -0.3
v 0.4 0.7 0.2
v 0.4 0.7 -0.1
v 0.4 0.8 0.4
v 0.4 0.8 0.2
v 0.4 0.8 -0.1
v 0.4 0.8 -0.3
v 0.6 0.7 0.2
v 0.6 0.7 -0.1
v 0.6 1 0.2
v 0.6 1 -0.1
v -0.4 0 0.4
v -0.4 0.8 0.4
v 0.4 0 0.4
v 0.4 0.8 0.4
v -0.6 0.7 0.2
v -0.6 1 0.2
v -0.4 0.7 0.2
v -0.4 0.8 0.2
v -0.3 0.8 0.2
v -0.3 1 0.2
v 0.3 0.8 0.2
v 0.3 1 0.2
v 0.4 0.7 0.2
v 0.4 0.8 0.2
v 0.6 0.7 0.2
v 0.6 1 0.2
v -0.6 0.7 -0.1
v -0.6 1 -0.1
v -0.5 0.8 -0.1
v -0.5 0.9 -0.1
v -0.4 0.7 -0.1
v -0.4 0.8 -0.1
v -0.4 0.9 -0.1
v -0.3 0.8 -0.1
v -0.3 1 -0.1
v 0.3 0.8 -0.1
v 0.3 1 -0.1
v 0.4 0.7 -0.1
v 0.4 0.8 -0.1
v 0.4 0.9 -0.1
v 0.5 0.8 -0.1
v 0.5 0.9 -0.1
v 0.6 0.7 -0.1
v 0.6 1 -0.1
v -0.4 0 -0.3
v -0.4 0.2 -0.3
v -0.4 0.3 -0.3
v -0.4 0.8 -0.3
v -0.3 0.2 -0.3
v -0.3 0.3 -0.3
v -0.3 0.6 -0.3
v -0.2 0.1 -0.3
v -0.2 0.2 -0.3
v -0.2 0.3 -0.3
v -0.2 0.5 -0.3
v -0.1 0 -0.3
v -0.1 0.1 -0.3
v -0.1 0.2 -0.3
v -0.1 0.3 -0.3
v -0.1 0.4 -0.3
v -0.1 0.5 -0.3
v -0.1 0.6 -0.3
v 0.1 0 -0.3
v 0.1 0.1 -0.3
v 0.1 0.2 -0.3
v 0.1 0.3 -0.3
v 0.1 0.4 -0.3
v 0.1 0.6 -0.3
v 0.2 0.1 -0.3
v 0.2 0.2 -0.3
v 0.2 0.3 -0.3
v 0.2 0.5 -0.3
v 0.3 0.2 -0.3
v 0.3 0.3 -0.3
v 0.3 0.5 -0.3
v 0.3 0.6 -0.3
v 0.4 0 -0.3
v 0.4 0.2 -0.3
v 0.4 0.3 -0.3
v 0.4 0.8 -0.3
v -0.1 0.2 -0.4
v -0.1 0.4 -0.4
v 0.1 0.2 -0.4
v 0.1 0.4 -0.4
v -0.4 0 0.4
v 0.4 0 0.4
v -0.1 0 -0.2
v 0.1 0 -0.2
v -0.4 0 -0.3
v -0.1 0 -0.3
v 0.1 0 -0.3
v 0.4 0 -0.3
v -0.1 0.2 -0.3
v 0.1 0.2 -0.3
v -0.1 0.2 -0.4
v 0.1 0.2 -0.4
v -0.6 0.7 0.2
v -0.4 0.7 0.2
v 0.4 0.7 0.2
v 0.6 0.7 0.2
v -0.6 0.7 -0.1
v -0.4 0.7 -0.1
v 0.4 0.7 -0.1
v 0.6 0.7 -0.1
v -0.1 0.4 -0.3
v 0.1 0.4 -0.3
v -0.1 0.4 -0.4
v 0.1 0.4 -0.4
v -0.4 0.8 0.4
v 0.4 0.8 0.4
v -0.4 0.8 0.2
v -0.3 0.8 0.2
v 0.3 0.8 0.2
v 0.4 0.8 0.2
v -0.4 0.8 -0.1
v -0.3 0.8 -0.1
v 0.3 0.8 -0.1
v 0.4 0.8 -0.1
v -0.4 0.8 -0.3
v 0.4 0.8 -0.3
v -0.6 1 0.2
v -0.3 1 0.2
v 0.3 1 0.2
v 0.6 1 0.2
v -0.6 1 -0.1
v -0.3 1 -0.1
v 0.3 1 -0.1
v 0.6 1 -0.1

# faces
f 3/2/1 2/2/1 1/2/1
f 4/2/1 2/2/1 3/2/1
f 7/2/1 6/2/1 5/2/1
f 8/2/1 6/2/1 7/2/1
f 9/2/1 7/2/1 5/2/1
f 9/5/1 8/5/1 7/5/1
f 10/5/1 8/5/1 9/5/1
f 11/2/1 9/2/1 5/2/1
f 11/2/1 10/2/1 9/2/1
f 12/2/1 10/2/1 11/2/1
f 13/2/1 11/2/1 5/2/1
f 14/2/1 11/2/1 13/2/1
f 15/2/1 10/2/1 12/2/1
f 16/2/1 10/2/1 15/2/1
f 19/6/1 18/6/1 17/6/1
f 20/6/1 18/6/1 19/6/1
f 21/6/1 18/6/1 20/6/1
f 24/2/1 23/2/1 22/2/1
f 25/2/1 23/2/1 24/2/1
f 26/2/2 27/2/2 28/2/2
f 28/2/2 27/2/2 29/2/2
f 30/6/2 31/6/2 32/6/2
f 32/6/2 31/6/2 33/6/2
f 33/6/2 31/6/2 34/6/2
f 35/2/2 36/2/2 37/2/2
f 37/2/2 36/2/2 38/2/2
f 35/2/2 37/2/2 39/2/2
f 37/5/2 38/5/2 39/5/2
f 39/5/2 38/5/2 40/5/2
f 35/2/2 39/2/2 41/2/2
f 39/2/2 40/2/2 41/2/2
f 41/2/2 40/2/2 42/2/2
f 35/2/2 41/2/2 43/2/2
f 43/2/2 41/2/2 44/2/2
f 42/2/2 40/2/2 45/2/2
f 45/2/2 40/2/2 46/2/2
f 47/2/2 48/2/2 49/2/2
f 49/2/2 48/2/2 50/2/2
f 53/2/3 52/2/3 51/2/3
f 54/2/3 52/2/3 53/2/3
f 57/2/3 56/2/3 55/2/3
f 58/2/3 56/2/3 57/2/3
f 59/2/3 56/2/3 58/2/3
f 60/2/3 56/2/3 59/2/3
f 64/2/3 62/2/3 61/2/3
f 65/2/3 64/2/3 63/2/3
f 66/2/3 62/2/3 64/2/3
f 66/2/3 64/2/3 65/2/3
f 67/2/4 68/2/4 69/2/4
f 69/2/4 68/2/4 70/2/4
f 67/2/4 69/2/4 71/2/4
f 69/3/4 70/3/4 72/3/4
f 71/2/4 69/2/4 72/2/4
f 70/2/4 68/2/4 73/2/4
f 72/3/4 70/3/4 73/3/4
f 72/2/4 73/2/4 74/2/4
f 73/2/4 68/2/4 75/2/4
f 74/2/4 73/2/4 75/2/4
f 76/2/4 77/2/4 79/2/4
f 79/2/4 77/2/4 80/2/4
f 78/2/4 79/2/4 81/2/4
f 79/3/4 80/3/4 81/3/4
f 80/2/4 77/2/4 82/2/4
f 81/3/4 80/3/4 82/3/4
f 78/2/4 81/2/4 83/2/4
f 81/2/4 82/2/4 83/2/4
f 82/2/4 77/2/4 84/2/4
f 83/2/4 82/2/4 84/2/4
f 85/2/4 86/2/4 89/2/4
f 86/5/4 87/5/4 89/5/4
f 87/2/4 88/2/4 90/2/4
f 89/5/4 87/5/4 90/5/4
f 90/2/4 88/2/4 91/2/4
f 85/2/4 89/2/4 92/2/4
f 89/2/4 90/2/4 92/2/4
f 92/2/4 90/2/4 93/2/4
f 90/3/4 91/3/4 94/3/4
f 93/2/4 90/2/4 94/2/4
f 94/3/4 91/3/4 95/3/4
f 85/2/4 92/2/4 96/2/4
f 92/4/4 93/4/4 97/4/4
f 96/2/4 92/2/4 97/2/4
f 93/2/4 94/2/4 98/2/4
f 97/4/4 93/4/4 98/4/4
f 94/1/4 95/1/4 99/1/4
f 98/2/4 94/2/4 99/2/4
f 99/1/4 95/1/4 100/1/4
f 95/3/4 91/3/4 101/3/4
f 100/1/4 95/1/4 101/1/4
f 91/2/4 88/2/4 102/2/4
f 101/3/4 91/3/4 102/3/4
f 96/4/4 97/4/4 103/4/4
f 97/2/4 98/2/4 104/2/4
f 103/4/4 97/4/4 104/4/4
f 104/2/4 98/2/4 105/2/4
f 100/2/4 101/2/4 107/2/4
f 101/2/4 102/2/4 107/2/4
f 102/2/4 88/2/4 108/2/4
f 107/2/4 102/2/4 108/2/4
f 104/4/4 105/4/4 109/4/4
f 103/2/4 104/2/4 109/2/4
f 105/2/4 106/2/4 110/2/4
f 109/4/4 105/4/4 110/4/4
f 106/3/4 107/3/4 111/3/4
f 110/2/4 106/2/4 111/2/4
f 107/3/4 108/3/4 111/3/4
f 111/3/4 108/3/4 112/3/4
f 109/2/4 110/2/4 113/2/4
f 110/2/4 111/2/4 113/2/4
f 111/1/4 112/1/4 114/1/4
f 113/2/4 111/2/4 114/2/4
f 112/3/4 108/3/4 115/3/4
f 114/1/4 112/1/4 115/1/4
f 108/2/4 88/2/4 116/2/4
f 115/3/4 108/3/4 116/3/4
f 103/2/4 109/2/4 117/2/4
f 109/2/4 113/2/4 117/2/4
f 113/5/4 114/5/4 118/5/4
f 117/2/4 113/2/4 118/2/4
f 114/2/4 115/2/4 119/2/4
f 118/5/4 114/5/4 119/5/4
f 115/2/4 116/2/4 119/2/4
f 116/2/4 88/2/4 120/2/4
f 119/2/4 116/2/4 120/2/4
f 121/6/4 122/6/4 123/6/4
f 123/6/4 122/6/4 124/6/4
f 127/2/5 126/2/5 125/2/5
f 128/2/5 126/2/5 127/2/5
f 129/2/5 127/2/5 125/2/5
f 130/4/5 128/4/5 127/4/5
f 130/2/5 127/2/5 129/2/5
f 131/2/5 126/2/5 128/2/5
f 131/4/5 128/4/5 130/4/5
f 132/2/5 126/2/5 131/2/5
f 135/6/5 134/6/5 133/6/5
f 136/6/5 134/6/5 135/6/5
f 141/2/5 138/2/5 137/2/5
f 142/2/5 138/2/5 141/2/5
f 143/2/5 140/2/5 139/2/5
f 144/2/5 140/2/5 143/2/5
f 145/6/6 146/6/6 147/6/6
f 147/6/6 146/6/6 148/6/6
f 149/2/6 150/2/6 151/2/6
f 151/2/6 150/2/6 152/2/6
f 152/2/6 150/2/6 153/2/6
f 153/2/6 150/2/6 154/2/6
f 152/2/6 153/2/6 156/2/6
f 156/2/6 153/2/6 157/2/6
f 155/2/6 156/2/6 159/2/6
f 157/2/6 158/2/6 159/2/6
f 156/2/6 157/2/6 159/2/6
f 159/2/6 158/2/6 160/2/6
f 161/2/6 162/2/6 165/2/6
f 165/2/6 162/2/6 166/2/6
f 163/2/6 164/2/6 167/2/6
f 167/2/6 164/2/6 168/2/6
